<svg xmlns="http://www.w3.org/2000/svg" width="32" height="32" viewBox="0 0 32 32">
  <!-- burst = a bubble popping. dark halo then bright spokes. -->
  <g stroke="#06121c" stroke-width="4.5" stroke-linecap="round" opacity="0.55">
    <line x1="16" y1="4" x2="16" y2="10"/>
    <line x1="16" y1="22" x2="16" y2="28"/>
    <line x1="4" y1="16" x2="10" y2="16"/>
    <line x1="22" y1="16" x2="28" y2="16"/>
    <line x1="7.5" y1="7.5" x2="11.5" y2="11.5"/>
    <line x1="20.5" y1="20.5" x2="24.5" y2="24.5"/>
    <line x1="24.5" y1="7.5" x2="20.5" y2="11.5"/>
    <line x1="11.5" y1="20.5" x2="7.5" y2="24.5"/>
  </g>
  <g stroke="#ffd76a" stroke-width="2.4" stroke-linecap="round">
    <line x1="16" y1="4" x2="16" y2="10"/>
    <line x1="16" y1="22" x2="16" y2="28"/>
    <line x1="4" y1="16" x2="10" y2="16"/>
    <line x1="22" y1="16" x2="28" y2="16"/>
    <line x1="7.5" y1="7.5" x2="11.5" y2="11.5"/>
    <line x1="20.5" y1="20.5" x2="24.5" y2="24.5"/>
    <line x1="24.5" y1="7.5" x2="20.5" y2="11.5"/>
    <line x1="11.5" y1="20.5" x2="7.5" y2="24.5"/>
  </g>
</svg>
